<svg width="557" height="556" viewBox="0 0 557 556" fill="none" xmlns="http://www.w3.org/2000/svg">
<path d="M557 86.875C557 38.8953 518.035 0 469.969 0H87.0312C38.9652 0 0 38.8953 0 86.875V469.125C0 517.105 38.9652 556 87.0312 556H469.969C518.035 556 557 517.105 557 469.125V86.875Z" fill="#7289DA"/>
<path d="M253.296 272.996C245.359 272.996 239.092 279.946 239.092 288.425C239.092 296.904 245.498 303.854 253.296 303.854C261.233 303.854 267.499 296.904 267.499 288.425C267.639 279.946 261.233 272.996 253.296 272.996ZM304.122 272.996C296.185 272.996 289.919 279.946 289.919 288.425C289.919 296.904 296.324 303.854 304.122 303.854C312.059 303.854 318.326 296.904 318.326 288.425C318.326 279.946 312.059 272.996 304.122 272.996Z" fill="white"/>
<path d="M371.798 156.375H185.203C169.467 156.375 156.656 169.163 156.656 185.009V372.937C156.656 388.783 169.467 401.571 185.203 401.571H343.112L335.732 375.856L353.556 392.397L370.405 407.965L400.344 434.375V185.009C400.344 169.163 387.533 156.375 371.798 156.375ZM318.047 337.909C318.047 337.909 313.034 331.932 308.857 326.65C327.098 321.507 334.061 310.109 334.061 310.109C328.351 313.862 322.921 316.503 318.047 318.31C311.084 321.229 304.4 323.175 297.856 324.287C284.488 326.789 272.234 326.094 261.79 324.148C253.853 322.619 247.03 320.395 241.32 318.171C238.118 316.92 234.636 315.391 231.155 313.445C230.737 313.167 230.32 313.028 229.902 312.75C229.623 312.611 229.484 312.472 229.345 312.333C226.838 310.943 225.446 309.97 225.446 309.97C225.446 309.97 232.13 321.09 249.815 326.372C245.637 331.654 240.485 337.909 240.485 337.909C209.71 336.936 198.013 316.781 198.013 316.781C198.013 272.023 218.065 235.744 218.065 235.744C238.117 220.732 257.195 221.149 257.195 221.149L258.587 222.817C233.522 230.045 221.965 241.026 221.965 241.026C221.965 241.026 225.028 239.358 230.18 236.995C245.08 230.462 256.916 228.655 261.79 228.238C262.626 228.099 263.322 227.96 264.157 227.96C272.651 226.848 282.26 226.57 292.286 227.682C305.514 229.211 319.718 233.103 334.2 241.026C334.2 241.026 323.199 230.601 299.527 223.373L301.476 221.149C301.476 221.149 320.554 220.732 340.606 235.744C340.606 235.744 360.658 272.023 360.658 316.781C360.658 316.781 348.821 336.936 318.047 337.909Z" fill="white"/>
</svg>
