<svg width="2015" height="1060" viewBox="0 0 2015 1060" fill="none" xmlns="http://www.w3.org/2000/svg">
<rect x="24.2402" y="1013.28" width="1992" height="46.1684" transform="rotate(-3.76297 24.2402 1013.28)" fill="#E8E7E3"/>
<rect x="21.209" y="967.213" width="1992" height="46.1684" transform="rotate(-3.76297 21.209 967.213)" fill="#E8E3E7"/>
<rect x="19.6953" y="944.182" width="1992" height="46.1684" transform="rotate(-3.76297 19.6953 944.182)" fill="#E8E7E3"/>
<rect x="16.6641" y="898.111" width="1992" height="46.1684" transform="rotate(-3.76297 16.6641 898.111)" fill="#E8E3E7"/>
<rect x="13.6348" y="852.043" width="1992" height="46.1684" transform="rotate(-3.76297 13.6348 852.043)" fill="#E8E7E3"/>
<rect x="10.6055" y="805.975" width="1992" height="46.1684" transform="rotate(-3.76297 10.6055 805.975)" fill="#E8E3E7"/>
<rect x="10.6055" y="805.975" width="1992" height="46.1684" transform="rotate(-3.76297 10.6055 805.975)" fill="#E8E7E3"/>
<rect x="7.57422" y="759.906" width="1992" height="46.1684" transform="rotate(-3.76297 7.57422 759.906)" fill="#E8E3E7"/>
<rect x="6.06055" y="736.869" width="1992" height="46.1684" transform="rotate(-3.76297 6.06055 736.869)" fill="#E8E7E3"/>
<rect x="3.0293" y="690.801" width="1992" height="46.1684" transform="rotate(-3.76297 3.0293 690.801)" fill="#E8E3E7"/>
<rect x="3.0293" y="690.801" width="1992" height="46.1684" transform="rotate(-3.76297 3.0293 690.801)" fill="#E8E7E3"/>
<rect y="644.732" width="1992" height="46.1684" transform="rotate(-3.76297 0 644.732)" fill="#E8E3E7"/>
<rect x="4" y="-11" width="1992" height="735" fill="url(#paint0_linear)"/>
<path d="M120 338.5V76H345V113.5H382.5V226H307.5V263.5H345V301H382.5V338.5H270V301H232.5V263.5H195V338.5H120ZM195 226H270V188.5H307.5V113.5H195V226ZM420 338.5V151H457.5V113.5H495V76H607.5V113.5H645V151H682.5V338.5H607.5V263.5H495V338.5H420ZM495 226H607.5V151H570V113.5H532.5V151H495V226ZM720 338.5V76H945V113.5H982.5V226H945V263.5H795V338.5H720ZM795 226H907.5V113.5H795V226ZM1020 338.5V76H1245V113.5H1282.5V226H1245V263.5H1095V338.5H1020ZM1095 226H1207.5V113.5H1095V226ZM1320 338.5V76H1582.5V113.5H1395V188.5H1545V226H1395V301H1582.5V338.5H1320ZM1620 338.5V76H1845V113.5H1882.5V226H1807.5V263.5H1845V301H1882.5V338.5H1770V301H1732.5V263.5H1695V338.5H1620ZM1695 226H1770V188.5H1807.5V113.5H1695V226ZM120 638.5V376H345V413.5H382.5V526H345V563.5H195V638.5H120ZM195 526H307.5V413.5H195V526ZM420 638.5V451H457.5V413.5H495V376H607.5V413.5H645V451H682.5V638.5H607.5V563.5H495V638.5H420ZM495 526H607.5V451H570V413.5H532.5V451H495V526ZM795 638.5V601H757.5V563.5H720V451H757.5V413.5H795V376H945V413.5H982.5V451H907.5V413.5H832.5V451H795V563.5H832.5V601H907.5V563.5H982.5V601H945V638.5H795ZM1020 638.5V376H1095V488.5H1132.5V451H1170V413.5H1207.5V376H1282.5V413.5H1245V451H1207.5V488.5H1170V526H1207.5V563.5H1245V601H1282.5V638.5H1170V601H1132.5V563.5H1095V638.5H1020ZM1357.5 638.5V601H1320V563.5H1395V601H1507.5V526H1357.5V488.5H1320V413.5H1357.5V376H1545V413.5H1582.5V451H1507.5V413.5H1395V488.5H1545V526H1582.5V601H1545V638.5H1357.5Z" fill="white"/>
<defs>
<linearGradient id="paint0_linear" x1="1000" y1="-11" x2="1000" y2="724" gradientUnits="userSpaceOnUse">
<stop stop-color="#DC1FFF"/>
<stop offset="1" stop-color="#00FFA3"/>
</linearGradient>
</defs>
</svg>
