<svg width="556" height="556" viewBox="0 0 556 556" fill="none" xmlns="http://www.w3.org/2000/svg">
<path d="M469.125 0H86.875C38.8953 0 0 38.8953 0 86.875V469.125C0 517.105 38.8953 556 86.875 556H469.125C517.105 556 556 517.105 556 469.125V86.875C556 38.8953 517.105 0 469.125 0Z" fill="#0088CC"/>
<path d="M140.736 272.932C215.361 240.419 265.123 218.984 290.021 208.628C361.111 179.059 375.883 173.923 385.511 173.752C387.628 173.716 392.363 174.241 395.43 176.73C398.02 178.831 398.732 181.67 399.073 183.662C399.414 185.654 399.839 190.193 399.501 193.739C395.649 234.217 378.98 332.444 370.499 377.78C366.911 396.963 359.846 403.395 353.005 404.024C338.14 405.392 326.851 394.2 312.453 384.762C289.923 369.993 277.195 360.8 255.326 346.388C230.052 329.733 246.436 320.579 260.84 305.619C264.609 301.704 330.107 242.129 331.375 236.724C331.533 236.048 331.681 233.529 330.184 232.198C328.687 230.868 326.478 231.323 324.884 231.685C322.624 232.198 286.632 255.987 216.908 303.053C206.691 310.068 197.438 313.486 189.147 313.307C180.007 313.11 162.425 308.139 149.355 303.891C133.324 298.68 120.583 295.924 121.692 287.074C122.27 282.465 128.618 277.751 140.736 272.932Z" fill="white"/>
</svg>
