<svg width="556" height="579" viewBox="0 0 556 579" fill="none" xmlns="http://www.w3.org/2000/svg">
<path d="M469.125 0H86.875C38.8953 0 0 40.5042 0 90.4688V488.531C0 538.496 38.8953 579 86.875 579H469.125C517.105 579 556 538.496 556 488.531V90.4688C556 40.5042 517.105 0 469.125 0Z" fill="#1DA1F2"/>
<path d="M417 199.031C406.575 204.459 396.15 206.269 383.988 208.078C396.15 200.841 404.837 189.984 408.312 175.509C397.887 182.747 385.725 186.366 371.825 189.984C361.4 179.128 345.762 171.891 330.125 171.891C293.638 171.891 265.838 208.078 274.525 244.266C227.613 242.456 185.913 218.934 156.375 182.747C140.738 209.888 149.425 244.266 173.75 262.359C165.062 262.359 156.375 258.741 147.688 255.122C147.688 282.263 166.8 307.594 192.863 314.831C184.175 316.641 175.488 318.45 166.8 316.641C173.75 340.162 194.6 358.256 220.662 358.256C199.812 374.541 168.538 383.588 139 379.969C165.062 396.253 194.6 407.109 225.875 407.109C331.862 407.109 390.937 314.831 387.462 229.791C399.625 222.553 410.05 211.697 417 199.031Z" fill="white"/>
</svg>
